<svg width="130" height="114" viewBox="0 0 130 114" fill="none" xmlns="http://www.w3.org/2000/svg">
<g id="&#240;&#159;&#166;&#134; icon &#34;Toolbox&#34;">
<path id="Vector" d="M127.517 46.1013L116.094 34.6788C114.58 33.1642 112.525 32.3135 110.382 32.3135H97.571V12.1166C97.571 5.42472 92.1463 0 85.4543 0H45.0656C38.3737 0 32.9489 5.42472 32.9489 12.1166V32.311H20.1381C17.995 32.311 15.9427 33.1617 14.4256 34.6763L3.00319 46.1013C1.48861 47.6158 0.637924 49.6706 0.637924 51.8137V72.6998H32.9489V68.6609C32.9489 66.4294 34.7563 64.622 36.9878 64.622H45.0656C47.2971 64.622 49.1044 66.4294 49.1044 68.6609V72.6998H81.4155V68.6609C81.4155 66.4294 83.2229 64.622 85.4543 64.622H93.5321C95.7636 64.622 97.571 66.4294 97.571 68.6609V72.6998H129.882V51.8112C129.882 49.6706 129.031 47.6158 127.517 46.1013ZM81.4155 32.311H49.1044V16.1555H81.4155V32.311ZM97.571 84.8164C97.571 87.0479 95.7636 88.8553 93.5321 88.8553H85.4543C83.2229 88.8553 81.4155 87.0479 81.4155 84.8164V80.7775H49.1044V84.8164C49.1044 87.0479 47.2971 88.8553 45.0656 88.8553H36.9878C34.7563 88.8553 32.9489 87.0479 32.9489 84.8164V80.7775H0.637924V105.011C0.637924 109.471 4.25524 113.089 8.71568 113.089H121.804C126.265 113.089 129.882 109.471 129.882 105.011V80.7775H97.571V84.8164Z" fill="black"/>
</g>
</svg>
