<svg width="135" height="108" viewBox="0 0 135 108" fill="none" xmlns="http://www.w3.org/2000/svg">
<g id="&#240;&#159;&#166;&#134; icon &#34;list bullet&#34;">
<path id="Vector" fill-rule="evenodd" clip-rule="evenodd" d="M128.004 94.3186C131.725 94.3186 134.741 97.3348 134.741 101.056C134.741 104.776 131.725 107.793 128.004 107.793H33.6852C29.9644 107.793 26.9482 104.776 26.9482 101.056C26.9482 97.3348 29.9644 94.3186 33.6852 94.3186H128.004ZM128.004 47.1593C131.725 47.1593 134.741 50.1756 134.741 53.8963C134.741 57.6171 131.725 60.6334 128.004 60.6334H33.6852C29.9644 60.6334 26.9482 57.6171 26.9482 53.8963C26.9482 50.1756 29.9644 47.1593 33.6852 47.1593H128.004ZM128.004 0C131.725 0 134.741 3.01628 134.741 6.73704C134.741 10.4578 131.725 13.4741 128.004 13.4741H33.6852C29.9644 13.4741 26.9482 10.4578 26.9482 6.73704C26.9482 3.01628 29.9644 0 33.6852 0H128.004ZM0 0H13.4741V13.4741H0V0ZM0 47.1593H13.4741V60.6334H0V47.1593ZM0 94.3186H13.4741V107.793H0V94.3186Z" fill="black"/>
</g>
</svg>
