<svg width="27" height="31" viewBox="0 0 27 31" fill="none" xmlns="http://www.w3.org/2000/svg">
<path id="Logout" d="M26.6044 16.2827L21.2044 20.7113C20.9408 20.9275 20.5952 21.0357 20.2499 21.0357C19.9047 21.0357 19.5591 20.9275 19.2955 20.7113C18.768 20.2787 18.768 19.5782 19.2955 19.1458L22.391 16.6071H9.44997C8.70376 16.6071 8.09997 16.112 8.09997 15.5C8.09997 14.888 8.70376 14.3929 9.44997 14.3929L22.391 14.3929L19.2955 11.8542C18.768 11.4216 18.768 10.721 19.2955 10.2887C19.823 9.85634 20.6772 9.85606 21.2044 10.2887L26.6044 14.7172C27.1319 15.1496 27.1319 15.8504 26.6044 16.2827ZM17.5499 28.7857H4.04999C3.30513 28.7857 2.69999 28.2894 2.69999 27.6786L2.69999 3.32143C2.69999 2.71056 3.30513 2.21429 4.04999 2.21429L17.5499 2.21429C18.2962 2.21429 18.8999 1.71912 18.8999 1.10714C18.8999 0.49517 18.2962 0 17.5499 0L4.04999 0C1.81676 0 0 1.48994 0 3.32143L0 27.6786C0 29.5101 1.81676 31 4.04999 31H17.5499C18.2962 31 18.8999 30.5048 18.8999 29.8929C18.8999 29.2809 18.2962 28.7857 17.5499 28.7857Z" fill="#CDD3D9"/>
</svg>
