<svg width="36" height="34" viewBox="0 0 36 34" fill="none" xmlns="http://www.w3.org/2000/svg">
<path id="Vector" d="M35.2722 31.1031L32.9328 33.3126L23.1415 24.0838V22.7639V22.5537L22.9914 22.4067L22.4356 21.8623L22.1169 21.5502L21.7706 21.8314C19.512 23.6651 16.5767 24.7716 13.3791 24.7716C6.23854 24.7716 0.5 19.312 0.5 12.6358C0.5 5.95963 6.23854 0.5 13.3791 0.5C20.5196 0.5 26.2581 5.95963 26.2581 12.6358C26.2581 15.6328 25.0959 18.3918 23.1568 20.5222L22.8204 20.8919L23.1899 21.2284L23.7663 21.7533L23.9094 21.8836H24.1029H25.5299L35.2722 31.1031ZM3.61664 12.6358C3.61664 17.779 8.00503 21.8836 13.3791 21.8836C18.7531 21.8836 23.1415 17.779 23.1415 12.6358C23.1415 7.49263 18.7531 3.38794 13.3791 3.38794C8.00503 3.38794 3.61664 7.49263 3.61664 12.6358Z" fill="black" stroke="black"/>
</svg>
